<svg xmlns="http://www.w3.org/2000/svg" viewBox="390 130 494 498" enable-background="new 390 130 494 498"><circle fill="#fff" stroke="#000" stroke-width="14" stroke-miterlimit="10" cx="637.3" cy="381.1" r="235.5"/><path fill="#231F20" d="M628.7 479.9s-34.7-17.9-79.9-19.2c0 0-12.5 41.4 1.2 86.5 0 0 8.3 19.1 38.6 7.3 0 0 28.8-14 34.3-19.9l11.1 3.2s16 11.2 26.8 3.6c0 0 3-6.3 5-11.3 0 0 3.6 6.3 15.7 7.6 0 0 37.7 17.6 70.1 9.9 0 0 .2-57.2-7-77 0 0-74.2-8.9-86.7 5.4-.1 0-28.5-1.6-29.2 3.9zM657.8 476s34.8-24.4 82-19.2l2 13.5-84 5.7z"/><path fill="#808285" d="M626 486.2s-2.5 17.7 1.3 41.5c3.8 23.7 2.1-43.7-1.3-41.5zM613.3 539.4s-15.4 4.8-34.6 14.5c-19.3 9.8 37.1-13.6 34.6-14.5z"/><path stroke="#231F20" stroke-width="3.45" stroke-miterlimit="10" d="M504.9 281.7s-3.2 59.7 36.6 60c0 0 66.6 7.2 66.8-48.9 0 0 14.7-40.9-57.4-31.8 0 .1-45-6.6-46 20.7zM642.5 293.5s3.5 46.7 49.5 49.7c0 0 42.4 6.7 52-28.1 0 0 5.1-26.1 2.1-33 0 0-.8-38.6-63.6-25 .1 0-56.4 7.9-40 36.4z" fill="none"/><path fill="#231F20" d="M481.8 272.2s43.4-23.4 116.8-11.5c0 0 21.2 4.2 36.7 3.1 0 0 9.9-1.7 13.7-2.9 0 0 29.1-13.8 85.8-5 0 0 17.4 2.3 23 1.6 0 0 11.9 7.4 10.7 12.4l-21.6 15.7s-4-28-38.2-26.4c0 0-51-1.5-66.4 21.7 0 0-1.2 5.6.1 13.1 0 0-3.7 3.1-5 0 0 0-5.1-17.4-17.5-12.3 0 0-6.7 15.9-11.7 13.9 0 0-.1-11.3-2.6-18.2 0 0-6.3-12.4-30-12.8 0 0-61-7.6-70.7 19.9 0 0-7.5-6.8-23-2.3l-.1-10z"/><ellipse transform="matrix(-.033 -1 1 -.033 233.601 777.354)" fill="#fff" cx="493" cy="275.6" rx="1.6" ry="7.5"/><ellipse transform="matrix(-.033 -1 1 -.033 507.448 1029.999)" fill="#fff" cx="752.2" cy="269.4" rx="1.6" ry="7.5"/></svg>