<?xml version="1.0" encoding="utf-8"?>
<!-- Generator: Adobe Illustrator 17.1.0, SVG Export Plug-In . SVG Version: 6.00 Build 0)  -->
<!DOCTYPE svg PUBLIC "-//W3C//DTD SVG 1.1//EN" "http://www.w3.org/Graphics/SVG/1.1/DTD/svg11.dtd">
<svg version="1.1" id="Layer_1" xmlns="http://www.w3.org/2000/svg" xmlns:xlink="http://www.w3.org/1999/xlink" x="0px" y="0px"
	 viewBox="0 0 648 648" enable-background="new 0 0 648 648" xml:space="preserve">
<circle fill="#FFFFFF" stroke="#000000" stroke-width="13.7767" stroke-miterlimit="10" cx="323" cy="325" r="301.5"/>
<path fill="#231F20" d="M308.2,453.8c0,0-43.9-22.6-101-24.3c0,0-15.8,52.3,1.5,109.4c0,0,10.5,24.1,48.8,9.2
	c0,0,36.4-17.7,43.4-25.2l14,4c0,0,20.2,14.2,33.9,4.6c0,0,3.8-8,6.3-14.3c0,0,4.6,8,19.8,9.6c0,0,47.7,22.3,88.6,12.5
	c0,0,0.3-72.3-8.9-97.4c0,0-93.8-11.3-109.6,6.8C345,448.9,309.1,446.8,308.2,453.8L308.2,453.8z M345,448.9c0,0,44-30.8,103.7-24.3
	l2.5,17.1L345,448.9z"/>
<path fill="#808285" d="M304.8,461.8c0,0-3.2,22.4,1.6,52.5C311.3,544.2,309.1,459,304.8,461.8z M288.8,529c0,0-19.5,6.1-43.7,18.3
	C220.6,559.8,291.9,530.2,288.8,529z"/>
<path fill="none" stroke="#231F20" stroke-width="3.3522" stroke-miterlimit="10" d="M151.7,203.2c0,0-4,75.5,46.3,75.9
	c0,0,84.2,9.1,84.5-61.8c0,0,18.6-51.7-72.6-40.2C209.9,177.2,153,168.7,151.7,203.2L151.7,203.2z M325.7,218.1
	c0,0,4.4,59,62.6,62.8c0,0,53.6,8.5,65.7-35.5c0,0,6.4-33,2.7-41.7c0,0-1-48.8-80.4-31.6C376.4,172.1,305,182.1,325.7,218.1z"/>
<path fill="#231F20" d="M122.5,191.2c0,0,54.9-29.6,147.7-14.5c0,0,26.8,5.3,46.4,3.9c0,0,12.5-2.1,17.3-3.7
	c0,0,36.8-17.4,108.5-6.3c0,0,22,2.9,29.1,2c0,0,15,9.4,13.5,15.7l-27.3,19.8c0,0-5.1-35.4-48.3-33.4c0,0-64.5-1.9-84,27.4
	c0,0-1.5,7.1,0.1,16.6c0,0-4.7,3.9-6.3,0c0,0-6.4-22-22.1-15.6c0,0-8.5,20.1-14.8,17.6c0,0-0.1-14.3-3.3-23c0,0-8-15.7-37.9-16.2
	c0,0-77.1-9.6-89.4,25.2c0,0-9.5-8.6-29.1-2.9L122.5,191.2L122.5,191.2z"/>
<ellipse transform="matrix(-0.9995 3.298200e-02 -3.298200e-02 -0.9995 279.5338 385.5304)" fill="#FFFFFF" cx="136.6" cy="195.1" rx="9.5" ry="2"/>
<ellipse transform="matrix(-0.9995 3.298200e-02 -3.298200e-02 -0.9995 934.2408 358.673)" fill="#FFFFFF" cx="464.2" cy="187" rx="9.5" ry="2"/>
</svg>
