<?xml version="1.0" encoding="utf-8"?>
<!-- Generator: Adobe Illustrator 17.1.0, SVG Export Plug-In . SVG Version: 6.00 Build 0)  -->
<!DOCTYPE svg PUBLIC "-//W3C//DTD SVG 1.1//EN" "http://www.w3.org/Graphics/SVG/1.1/DTD/svg11.dtd">
<svg version="1.1" id="Layer_1" xmlns="http://www.w3.org/2000/svg" xmlns:xlink="http://www.w3.org/1999/xlink" x="0px" y="0px"
	 viewBox="0 0 288 288" enable-background="new 0 0 288 288" xml:space="preserve">
<circle fill="#FFFFFF" stroke="#000000" stroke-width="13.7767" stroke-miterlimit="10" cx="143.6" cy="144.4" r="134"/>
<path fill="none" stroke="#231F20" stroke-width="3.3522" stroke-miterlimit="10" d="M67.4,90.3c0,0-1.8,33.6,20.6,33.7
	c0,0,37.4,4,37.6-27.5c0,0,8.3-23-32.3-17.9C93.3,78.8,68,75,67.4,90.3L67.4,90.3z M144.8,96.9c0,0,2,26.2,27.8,27.9
	c0,0,23.8,3.8,29.2-15.8c0,0,2.8-14.7,1.2-18.5c0,0-0.4-21.7-35.7-14C167.3,76.5,135.6,80.9,144.8,96.9z"/>
<path fill="#231F20" d="M54.4,85c0,0,24.4-13.2,65.6-6.4c0,0,11.9,2.4,20.6,1.7c0,0,5.6-0.9,7.7-1.6c0,0,16.4-7.7,48.2-2.8
	c0,0,9.8,1.3,12.9,0.9c0,0,6.7,4.2,6,7l-12.1,8.8c0,0-2.3-15.7-21.5-14.8c0,0-28.7-0.8-37.3,12.2c0,0-0.7,3.2,0,7.4
	c0,0-2.1,1.7-2.8,0c0,0-2.8-9.8-9.8-6.9c0,0-3.8,8.9-6.6,7.8c0,0,0-6.4-1.5-10.2c0,0-3.6-7-16.8-7.2c0,0-34.3-4.3-39.7,11.2
	c0,0-4.2-3.8-12.9-1.3L54.4,85L54.4,85z"/>
<ellipse transform="matrix(0.9995 -3.297905e-02 3.297905e-02 0.9995 -2.8259 2.0481)" fill="#FFFFFF" cx="60.7" cy="86.7" rx="4.2" ry="0.9"/>
<ellipse transform="matrix(0.9995 -3.297905e-02 3.297905e-02 0.9995 -2.6311 6.8492)" fill="#FFFFFF" cx="206.3" cy="83.2" rx="4.2" ry="0.9"/>
<g>
	<path fill="#231F20" d="M128.2,171.1c0,0-1.9,13,0.9,30.4C132,218.7,130.7,169.5,128.2,171.1z M93.7,220.5
		c-14.2,7.2,27.1-9.9,25.3-10.6C119,210,107.7,213.5,93.7,220.5z"/>
	<path fill="#231F20" d="M214.9,160.1l-2-0.1l-1.4-9.9c-32.4-1.8-60,14.1-60,14.1s0.1,0,0.2-0.1c-0.1,0-0.1,0-0.2,0
		c0,0.1-20.8-1.1-21.3,3c0,0-25.4-13.1-58.4-14.1c0,0-9.1,30.3,0.9,63.3c0,0,6.1,13.9,28.2,5.3c0,0,21.1-10.2,25.1-14.6l8.1,2.3
		c0,0,11.7,8.2,19.6,2.7c0,0,2.2-4.6,3.6-8.3c0,0,2.7,4.6,11.5,5.6c0,0,27.6,12.9,51.2,7.2C220,216.5,219.6,171.2,214.9,160.1z
		 M93.7,220.5c14-7.1,25.3-10.6,25.3-10.6C120.8,210.7,79.5,227.8,93.7,220.5z M129.2,201.5c-2.8-17.4-0.9-30.4-0.9-30.4
		C130.7,169.5,132,218.7,129.2,201.5z"/>
	<path fill="#808285" d="M119,210c0,0-11.3,3.5-25.3,10.6C79.5,227.8,120.8,210.7,119,210z M128.2,171.1c0,0-1.9,13,0.9,30.4
		C132,218.7,130.7,169.5,128.2,171.1z"/>
</g>
<g id="Layer_2" display="none">
	<g display="inline">
		<path fill="#231F20" d="M119.7,119.6c0,0-3.2,22.4,1.6,52.5C126.2,202,124,116.8,119.7,119.6z M60,205.1
			c-24.5,12.5,46.8-17.1,43.7-18.3C103.7,186.8,84.2,192.9,60,205.1z"/>
		<path fill="#231F20" d="M269.4,100.7l-3.4-0.2l-2.5-17.1c-55.9-3.1-103.7,24.3-103.7,24.3s0.1-0.1,0.4-0.2c-0.1,0-0.2,0-0.4,0
			c0,0.2-35.9-1.9-36.8,5.1c0,0-43.9-22.6-101-24.3c0,0-15.8,52.3,1.5,109.4c0,0,10.5,24.1,48.8,9.2c0,0,36.4-17.7,43.4-25.2l14,4
			c0,0,20.2,14.2,33.9,4.6c0,0,3.8-8,6.3-14.3c0,0,4.6,8,19.8,9.6c0,0,47.7,22.3,88.5,12.5C278.3,198,277.5,119.8,269.4,100.7z
			 M60,205.1c24.2-12.2,43.7-18.3,43.7-18.3C106.8,188,35.5,217.6,60,205.1z M121.3,172.1c-4.8-30.1-1.6-52.5-1.6-52.5
			C124,116.8,126.2,202,121.3,172.1z"/>
		<path fill="#808285" d="M103.7,186.8c0,0-19.5,6.1-43.7,18.3C35.5,217.6,106.8,188,103.7,186.8z M119.7,119.6
			c0,0-3.2,22.4,1.6,52.5C126.2,202,124,116.8,119.7,119.6z"/>
	</g>
</g>
</svg>
