<?xml version="1.0" encoding="utf-8"?>
<!-- Generator: Adobe Illustrator 17.1.0, SVG Export Plug-In . SVG Version: 6.00 Build 0)  -->
<!DOCTYPE svg PUBLIC "-//W3C//DTD SVG 1.1//EN" "http://www.w3.org/Graphics/SVG/1.1/DTD/svg11.dtd">
<svg version="1.1" id="Layer_1" xmlns="http://www.w3.org/2000/svg" xmlns:xlink="http://www.w3.org/1999/xlink" x="0px" y="0px"
	 viewBox="390 130 494 498" enable-background="new 390 130 494 498" xml:space="preserve">
<g id="Layer_1_1_" display="none">
	
		<image display="inline" overflow="visible" enable-background="new    " width="2448" height="3264" xlink:href="B637FC957C44EAD9.jpeg"  transform="matrix(1 0 0 1 -260.0951 0)">
	</image>
</g>
<circle fill="#FFFFFF" stroke="#000000" stroke-width="14" stroke-miterlimit="10" cx="637.3" cy="381.1" r="235.5"/>
<g>
	<path fill="#231F20" d="M628.7,479.9c0,0-34.7-17.9-79.9-19.2c0,0-12.5,41.4,1.2,86.5c0,0,8.3,19.1,38.6,7.3c0,0,28.8-14,34.3-19.9
		c0,0,0,0,11.1,3.2c0,0,16,11.2,26.8,3.6c0,0,3-6.3,5-11.3c0,0,3.6,6.3,15.7,7.6c0,0,37.7,17.6,70.1,9.9c0,0,0.2-57.2-7-77
		c0,0-74.2-8.9-86.7,5.4C657.8,476,629.4,474.4,628.7,479.9z"/>
	<path fill="#231F20" d="M657.8,476c0,0,34.8-24.4,82-19.2l2,13.5L657.8,476z"/>
	<path fill="#808285" d="M626,486.2c0,0-2.5,17.7,1.3,41.5C631.1,551.4,629.4,484,626,486.2z"/>
	<path fill="#808285" d="M613.3,539.4c0,0-15.4,4.8-34.6,14.5C559.4,563.7,615.8,540.3,613.3,539.4z"/>
</g>
<g>
	<path fill="none" stroke="#231F20" stroke-width="3.4498" stroke-miterlimit="10" d="M504.9,281.7c0,0-3.2,59.7,36.6,60
		c0,0,66.6,7.2,66.8-48.9c0,0,14.7-40.9-57.4-31.8C550.9,261.1,505.9,254.4,504.9,281.7z"/>
	<path fill="none" stroke="#231F20" stroke-width="3.4498" stroke-miterlimit="10" d="M642.5,293.5c0,0,3.5,46.7,49.5,49.7
		c0,0,42.4,6.7,52-28.1c0,0,5.1-26.1,2.1-33c0,0-0.8-38.6-63.6-25C682.6,257.1,626.1,265,642.5,293.5z"/>
	<g>
		<path fill="#231F20" d="M481.8,272.2c0,0,43.4-23.4,116.8-11.5c0,0,21.2,4.2,36.7,3.1c0,0,9.9-1.7,13.7-2.9c0,0,29.1-13.8,85.8-5
			c0,0,17.4,2.3,23,1.6c0,0,11.9,7.4,10.7,12.4l-21.6,15.7c0,0-4-28-38.2-26.4c0,0-51-1.5-66.4,21.7c0,0-1.2,5.6,0.1,13.1
			c0,0-3.7,3.1-5,0c0,0-5.1-17.4-17.5-12.3c0,0-6.7,15.9-11.7,13.9c0,0-0.1-11.3-2.6-18.2c0,0-6.3-12.4-30-12.8
			c0,0-61-7.6-70.7,19.9c0,0-7.5-6.8-23-2.3L481.8,272.2z"/>
		
			<ellipse transform="matrix(-3.259896e-02 -0.9995 0.9995 -3.259896e-02 233.6015 777.3536)" fill="#FFFFFF" cx="493" cy="275.6" rx="1.6" ry="7.5"/>
	</g>
	
		<ellipse transform="matrix(-3.259896e-02 -0.9995 0.9995 -3.259896e-02 507.4482 1029.9991)" fill="#FFFFFF" cx="752.2" cy="269.4" rx="1.6" ry="7.5"/>
</g>
</svg>
